<?xml version="1.0" encoding="utf-8"?>
<!-- Generator: Adobe Illustrator 27.0.0, SVG Export Plug-In . SVG Version: 6.00 Build 0)  -->
<svg version="1.1" id="Layer_1" xmlns="http://www.w3.org/2000/svg" xmlns:xlink="http://www.w3.org/1999/xlink" x="0px" y="0px"
	 viewBox="0 0 1280 1024" style="enable-background:new 0 0 1280 1024;" xml:space="preserve">
<style type="text/css">
	.st0{opacity:0.75;}
	.st1{fill:none;stroke:#147D9F;stroke-width:5;stroke-miterlimit:10;}
	.st2{fill:#147D9F;}
</style>
<g class="st0">
	<g>
		<g>
			<path class="st1" d="M676.51,470.21c7.12,0,14.31,2.58,20.73,7.86c2.68,2.2,3.49,6.83,1.8,10.33c-1.69,3.49-5.24,4.54-7.92,2.35
				c-10.87-8.94-24.82-6.9-33.91,4.96c-10.93,14.27-28.72,14.27-39.65,0l-1.95-2.55c-3.26-4.25-7.57-6.45-12.19-6.31
				c-4.6,0.18-8.83,2.75-11.89,7.24c-4.99,7.33-11.88,11.67-19.39,12.22c-7.52,0.52-14.73-2.77-20.32-9.33
				c-2.36-2.77-2.55-7.5-0.43-10.58c2.12-3.08,5.75-3.32,8.11-0.56c3.3,3.88,7.53,5.85,12,5.51c4.43-0.32,8.5-2.89,11.45-7.22
				c5.18-7.61,12.33-11.97,20.13-12.26c7.79-0.26,15.13,3.5,20.65,10.7l1.95,2.55c6.45,8.43,16.95,8.43,23.41,0
				C656.64,475.29,666.52,470.21,676.51,470.21z"/>
		</g>
	</g>
</g>
<g class="st0">
	<g>
		<g>
			<path class="st1" d="M667.51,429.21c7.12,0,14.31,2.58,20.73,7.86c2.68,2.2,3.49,6.83,1.8,10.33c-1.69,3.49-5.24,4.54-7.92,2.35
				c-10.87-8.94-24.82-6.9-33.91,4.96c-10.93,14.27-28.72,14.27-39.65,0l-1.95-2.55c-3.26-4.25-7.57-6.45-12.19-6.31
				c-4.6,0.18-8.83,2.75-11.89,7.24c-4.99,7.33-11.88,11.67-19.39,12.22c-7.52,0.52-14.73-2.77-20.32-9.33
				c-2.36-2.77-2.55-7.5-0.43-10.58c2.12-3.08,5.75-3.32,8.11-0.56c3.3,3.88,7.53,5.85,12,5.51c4.43-0.32,8.5-2.89,11.45-7.22
				c5.18-7.61,12.33-11.97,20.13-12.26c7.79-0.26,15.13,3.5,20.65,10.7l1.95,2.55c6.45,8.43,16.95,8.43,23.41,0
				C647.64,434.29,657.52,429.21,667.51,429.21z"/>
		</g>
	</g>
</g>
<g>
	<g>
		<g>
			<path class="st2" d="M666.19,577.65c4.75,0,9.54,1.72,13.82,5.24c1.79,1.47,2.33,4.55,1.2,6.89c-1.12,2.33-3.49,3.03-5.28,1.56
				c-7.25-5.96-16.54-4.6-22.6,3.31c-7.29,9.52-19.14,9.51-26.43,0l-1.3-1.7c-2.17-2.83-5.05-4.3-8.13-4.21
				c-3.07,0.12-5.88,1.83-7.93,4.83c-3.33,4.89-7.92,7.78-12.93,8.15c-5.01,0.35-9.82-1.85-13.55-6.22c-1.57-1.85-1.7-5-0.28-7.05
				c1.41-2.05,3.83-2.21,5.4-0.37c2.2,2.58,5.02,3.9,8,3.68c2.96-0.21,5.67-1.92,7.63-4.81c3.46-5.07,8.22-7.98,13.42-8.18
				c5.19-0.17,10.09,2.33,13.76,7.13l1.3,1.7c4.3,5.62,11.3,5.62,15.61,0C652.94,581.03,659.53,577.65,666.19,577.65z"/>
		</g>
	</g>
	<g>
		<g>
			<path class="st2" d="M666.19,553.95c4.75,0,9.54,1.72,13.82,5.24c1.79,1.47,2.33,4.55,1.2,6.89c-1.12,2.33-3.49,3.03-5.28,1.56
				c-7.25-5.96-16.54-4.6-22.6,3.31c-7.29,9.52-19.14,9.51-26.43,0l-1.3-1.7c-2.17-2.83-5.05-4.3-8.13-4.21
				c-3.07,0.12-5.88,1.83-7.93,4.83c-3.33,4.89-7.92,7.78-12.93,8.15c-5.01,0.35-9.82-1.85-13.55-6.22c-1.57-1.85-1.7-5-0.28-7.05
				c1.41-2.05,3.83-2.21,5.4-0.37c2.2,2.58,5.02,3.9,8,3.68c2.96-0.21,5.67-1.92,7.63-4.81c3.46-5.07,8.22-7.98,13.42-8.18
				c5.19-0.17,10.09,2.33,13.76,7.13l1.3,1.7c4.3,5.62,11.3,5.62,15.61,0C652.94,557.33,659.53,553.95,666.19,553.95z"/>
		</g>
	</g>
</g>
</svg>
