<svg xmlns="http://www.w3.org/2000/svg" width="134" height="45" viewBox="0 0 134 45" fill="none">
    <path d="M17.5721 44.009C14.4221 44.009 12.6847 44.1044 11.3572 41.8169C11.0548 41.2973 8.82622 35.7542 8.47508 34.9951H4.94748V41.8575C4.94748 42.7039 6.1247 43.2844 6.1247 43.2844V44.009H0.857652V43.2844C0.857652 43.2844 2.04299 42.7039 2.04299 41.8575V25.5002C2.04299 24.7127 1.63908 24.2662 0.851562 24.0632V23.3386H8.03667C12.5872 23.3386 15.3943 24.8812 15.3943 28.8776C15.3943 31.4452 14.073 33.5033 11.477 34.4065C11.477 34.4065 13.4925 38.9916 13.667 39.4361C14.6433 41.9143 16.33 43.2844 17.5721 43.2844V44.009ZM7.33439 33.3024C10.4256 33.274 11.9134 31.9709 11.9134 28.9954C11.9134 26.0198 10.1638 25.208 7.21667 25.1796H4.94748V33.3044H7.33236L7.33439 33.3024Z" fill="#353E44"/>
    <path d="M43.6426 24.0632V23.3386H48.3271C55.153 23.3386 60.4159 25.8879 60.4159 33.1644C60.4159 42.2229 55.4736 43.9785 48.5321 44.007H43.6568V43.2824C44.5904 43.0205 44.8056 42.6105 44.834 41.7662V25.551C44.834 24.3697 43.6426 24.0632 43.6426 24.0632ZM47.7446 42.2249H48.8528C54.0163 42.2249 56.933 40.2256 56.933 33.7793C56.933 27.3331 53.4034 25.1816 48.0369 25.1816H47.7446V42.2249Z" fill="#353E44"/>
    <path d="M35.5134 40.646C34.4275 42.2109 32.6495 42.1967 29.7186 42.1967H27.2525V34.0779L34.4722 34.356V32.3182L27.2383 32.5983L27.2444 25.1696H30.3884C33.1204 25.1696 34.4985 25.2934 35.1541 26.6777H35.9883V23.3429H23.1465V24.0837C23.1465 24.0837 24.342 24.4978 24.342 25.5126V41.8699C24.3399 42.6574 23.9644 43.0837 23.1465 43.2866V44.0112H36.2502L36.5972 40.648H35.5134V40.646Z" fill="#353E44"/>
    <path d="M108.379 40.6458C107.293 42.2107 105.515 42.1965 102.584 42.1965H100.118V34.0534L107.337 34.3314V32.2936L100.104 32.5737L100.11 25.1714H103.254C105.986 25.1714 107.364 25.2953 108.019 26.6795H108.854V23.3447H96.0117V24.0856C96.0117 24.0856 97.2072 24.4996 97.2072 25.5145V41.8717C97.2052 42.6593 96.8297 43.0855 96.0117 43.2885V44.0131H109.115L109.462 40.6499H108.379V40.6458Z" fill="#353E44"/>
    <path d="M120.406 36.8136H127.354L126.733 35.0844H120.995L120.404 36.8136H120.406Z" fill="#353E44"/>
    <path d="M128.651 41.2811L124.2 26.5962L119.387 40.2175C119.387 40.2175 118.957 41.4272 118.853 41.9245C118.717 42.5801 119.001 42.9941 119.848 43.2864V44.011H115.027V43.2864C115.961 42.9373 116.399 42.0564 117.041 40.3941L123.134 23.3427H126.233C126.233 23.3427 130.642 36.4768 132.385 41.2709C133.063 43.1382 133.875 43.2864 133.875 43.2864V44.011H128.19V43.2864C128.734 43.2864 128.85 42.4928 128.799 41.9874C128.783 41.825 128.699 41.4394 128.653 41.2831L128.651 41.2811Z" fill="#353E44"/>
    <path d="M82.9584 31.8288C80.5674 30.8079 78.627 29.7463 78.627 27.7329C78.627 25.965 80.129 24.6681 82.1404 24.6681C84.438 24.6681 85.8426 25.689 86.5936 27.5786H87.5516V24.2439C86.0049 23.4847 83.7094 22.9753 81.8177 23.1072C78.0486 23.367 75.2232 25.2851 75.3897 29.0278C75.5115 31.774 78.6575 33.4262 81.5762 34.715C84.8947 36.1825 86.3277 36.9923 86.1389 39.3935C86.007 41.068 84.6288 42.4664 82.1424 42.4664C79.8935 42.4664 77.9207 41.6606 77.0459 39.4381H75.7286L75.2598 42.7059C76.9505 43.6396 79.1101 44.3094 81.2392 44.3094C85.1484 44.3094 89.2017 42.6958 89.2017 37.8915C89.2017 34.3903 85.9644 33.1075 82.9604 31.8247L82.9584 31.8288Z" fill="#353E44"/>
    <path d="M45.6525 1.65558L48.1896 9.63023L50.7977 2.24622C50.7977 2.24622 51.0372 1.5744 51.0941 1.29836C51.1692 0.935043 51.0108 0.703658 50.542 0.541283V0.139404H53.2191V0.541283C52.7016 0.736133 52.458 1.22529 52.1008 2.1488L48.7173 11.6214H46.9961C46.9961 11.6214 44.5463 4.32462 43.5781 1.6637C43.2006 0.62653 42.75 0.543313 42.75 0.543313V0.139404H45.9082V0.541283C45.6058 0.541283 45.5408 0.981726 45.5713 1.26182C45.5814 1.35113 45.6261 1.56628 45.6525 1.65355V1.65558Z" fill="#353E44"/>
    <path d="M68.5423 4.85436C67.2128 4.28808 66.1371 3.69744 66.1371 2.57908C66.1371 1.59671 66.9713 0.876167 68.0876 0.876167C69.3643 0.876167 70.1437 1.44245 70.5618 2.49383H71.0936V0.642753C70.235 0.220577 68.9583 -0.0615496 67.909 0.0115193C65.8164 0.155627 64.2454 1.22121 64.3388 3.29962C64.4057 4.82594 66.1533 5.74336 67.775 6.45984C69.618 7.27578 70.4136 7.72434 70.3081 9.05988C70.235 9.98948 69.4678 10.7668 68.0876 10.7668C66.8373 10.7668 65.7433 10.3183 65.2582 9.08423H64.5255L64.2637 10.8988C65.2034 11.4163 66.403 11.7898 67.5842 11.7898C69.756 11.7898 72.0069 10.8927 72.0069 8.22567C72.0069 6.28123 70.2086 5.56881 68.5402 4.85639L68.5423 4.85436Z" fill="#353E44"/>
    <path d="M56.9494 11.6214V11.2195C56.9494 11.2195 57.607 10.8968 57.607 10.4279V1.34098C57.607 0.904597 57.3817 0.654946 56.9453 0.543313V0.139404H59.8904V0.541283C59.452 0.654946 59.2287 0.902568 59.2287 1.33895V10.4238C59.2287 10.8927 59.8863 11.2154 59.8863 11.2154V11.6173H56.9494V11.6214Z" fill="#353E44"/>
    <path d="M76.0959 11.6214V11.2195C76.0959 11.2195 76.7535 10.8968 76.7535 10.4279V1.34098C76.7535 0.904597 76.5282 0.654946 76.0918 0.543313V0.139404H79.0369V0.541283C78.5985 0.654946 78.3752 0.902568 78.3752 1.33895V10.4238C78.3752 10.8927 79.0328 11.2154 79.0328 11.2154V11.6173H76.0959V11.6214Z" fill="#353E44"/>
    <path d="M88.3546 1.18266V10.4259C88.3546 10.8947 89.0122 11.2175 89.0122 11.2175V11.6193H86.0752V11.2175C86.0752 11.2175 86.7328 10.8947 86.7328 10.4259V1.16034C85.5881 1.16034 83.8852 1.2943 83.2864 2.07167H82.9941L83.0733 0.139404H92.0141L92.0932 2.07167H91.801C91.2022 1.2943 89.4973 1.16034 88.3546 1.16034V1.18064V1.18266Z" fill="#353E44"/>
</svg>