<?xml version="1.0" encoding="utf-8"?>
<!-- Generator: Adobe Illustrator 27.0.0, SVG Export Plug-In . SVG Version: 6.00 Build 0)  -->
<svg version="1.1" id="Layer_1" xmlns="http://www.w3.org/2000/svg" xmlns:xlink="http://www.w3.org/1999/xlink" x="0px" y="0px"
	 viewBox="0 0 1280 1024" style="enable-background:new 0 0 1280 1024;" xml:space="preserve">
<style type="text/css">
	.st0{fill:#0C1226;}
	.st1{fill:#F0EA55;}
	.st2{font-family:'beINBlack';}
	.st3{font-size:17.2849px;}
	.st4{fill:#147D9F;}
</style>
<g>
	<g>
		<g>
			<path class="st0" d="M508.06,594.44c0,14.7-5.2,27.5-15.7,38.3c-9.2,9.7-22.2,14.7-38.9,15.2c-3.2,0.1-12,0.2-26.5,0.2
				c-2.7,0-6.8-0.1-12.2-0.2c-5.5-0.2-9.5-0.2-12.2-0.2c-1.6,0-2.4-0.6-2.4-1.7c0-5.5,0.2-13.8,0.7-24.8s0.7-19.3,0.7-24.8
				c0-5.8-0.2-14.4-0.7-25.9s-0.7-20.1-0.7-25.8c0-1.1,0.8-1.7,2.4-1.9c3.9-0.4,10.4-0.6,19.3-0.6c17,0,28.1,0.2,33.1,0.7
				c13.1,1.2,23.4,4.2,30.8,9c7,4.5,12.5,10.8,16.5,18.9C506.06,578.44,508.06,586.34,508.06,594.44z M476.26,594.44
				c0-8.5-2.8-15.4-8.4-20.7c-5.6-5.6-13.1-8.3-22.4-8.3c-8.5,0-12.8,1-12.8,3.1c0,3-0.1,7.4-0.2,13.3c-0.1,5.9-0.2,10.4-0.2,13.3
				c0,2.9,0.1,7.3,0.2,13.1s0.2,10.2,0.2,13.2c0,2.2,4.4,3.2,13.3,3.2c9.6,0,17.1-2.9,22.6-8.6
				C473.66,610.54,476.26,603.34,476.26,594.44z"/>
			<path class="st0" d="M631.96,610.84c0,12.8-1.7,21.5-5.1,26.1c-6.2,8.5-21.7,12.8-46.4,12.8c-11.2,0-19.8-0.8-25.8-2.3
				c-9.6-2.5-15.9-7.3-18.8-14.3c-1.4-3.5-2.2-9.6-2.2-18.5c0-2.1,0.1-5.1,0.2-9.2c0.2-4.1,0.2-7.1,0.2-9.1c0-5.8-0.3-14.5-0.9-26.1
				c-0.6-11.6-0.9-20.3-0.9-26.1c0-1.2,0.6-1.8,1.7-1.8c3.4,0,8.5,0.1,15.3,0.4c6.8,0.3,11.9,0.4,15.3,0.4c1.4,0,2.1,0.6,2.1,1.7
				c0,6.6-0.2,16.5-0.7,29.7s-0.7,23.1-0.7,29.7c0,7.9,0.9,13.2,2.7,15.9c2.4,3.8,7.5,5.6,15.3,5.6c11.3,0,17-5,17-14.9
				c0-7.3-0.2-18.2-0.6-32.7c-0.4-14.5-0.6-25.4-0.6-32.7c0-1.6,0.7-2.3,2.1-2.3c3.3,0,8.2-0.1,14.8-0.4c6.6-0.2,11.5-0.4,14.8-0.4
				c1.6,0,2.4,0.6,2.4,1.8c0,5.8-0.3,14.4-0.8,26.1c-0.5,11.6-0.8,20.3-0.8,26.1c0,1.6,0,4,0.1,7.2
				C631.86,606.84,631.96,609.24,631.96,610.84z"/>
			<path class="st0" d="M757.16,630.74c0,0.8-0.6,1.9-1.7,3.2c-10.2,11-23.7,16.5-40.6,16.5c-17.3,0-31.3-5.3-42-16
				c-10.5-10.3-15.7-23.3-15.7-39.1c0-15.2,5.1-28.1,15.4-38.8c10.7-11.1,24.3-16.7,40.8-16.7c17.9,0,32,5,42.2,14.9
				c1.1,1.1,1.7,2.1,1.7,2.9c0,1-1.9,4.5-5.8,10.6c-3.8,6.1-6.3,9.5-7.3,10.3c-0.4,0.4-1,0.6-1.7,0.6c-0.3,0-1.7-1-4.2-3
				c-3-2.4-5.9-4.3-8.8-5.6c-4.4-2-8.9-3-13.6-3c-8.1,0-14.6,2.8-19.5,8.3c-4.5,5.1-6.7,11.4-6.7,18.9c0,7.6,2.2,14,6.7,19.2
				c4.9,5.6,11.4,8.4,19.5,8.4c4.8,0,9.4-1,13.7-2.9c2.8-1.3,5.7-3,8.6-5.3c2.4-1.9,3.8-2.9,4.1-2.9c0.6,0,1.1,0.3,1.7,0.8
				c0.9,0.9,3.3,4,7.2,9.4C755.16,627.14,757.16,630.14,757.16,630.74z"/>
			<path class="st0" d="M880.26,643.44c0,2.2-1,3.6-3.1,4.2c-1.7,0.5-6,0.8-13.1,0.8c-6.8,0-11.8-0.3-14.9-0.8
				c-1.5-0.2-2.5-0.5-2.9-0.8c-0.5-0.3-1.1-1-1.8-2.1c-4-6.7-8.1-13.4-12-20.1c-6.6-10.8-10.5-16.8-11.8-17.9c-6,2-9,3.4-9,4.2
				c0,3.8,0.2,9.4,0.5,17s0.5,13.3,0.5,17.1c0,1.6-0.7,2.4-2.2,2.6c-2.9,0.4-8.1,0.6-15.6,0.6c-7.2,0-12-0.2-14.3-0.6
				c-1.6-0.3-2.4-1.1-2.4-2.3c0-5.4,0.3-13.6,0.9-24.5c0.6-10.9,0.9-19.1,0.9-24.6c0-5.8-0.3-14.5-0.8-26.2s-0.8-20.4-0.8-26.2
				c0-1.1,0.6-1.7,1.7-1.7c1.7,0,4.3,0.1,7.8,0.2c3.5,0.1,6,0.2,7.8,0.2s4.4-0.1,7.9-0.2c3.5-0.2,6.1-0.2,7.8-0.2
				c0.9,0,1.4,0.5,1.4,1.4c0,3.7-0.2,9.3-0.6,16.8c-0.4,7.5-0.6,13.1-0.6,16.8c0,4.3,1.3,6.5,3.9,6.5c6.6,0,11.7-1.6,15.4-4.9
				c2.7-2.4,5.5-6.8,8.2-13.1c1.8-4.9,4.7-12,8.7-21.5c0.6-1.3,1.9-1.9,3.7-1.9c1.4,0,3.6,0.1,6.5,0.2c2.9,0.1,5.1,0.2,6.5,0.2
				c1.5,0,3.7,0,6.7-0.1s5.2-0.2,6.6-0.2c1.3,0,2,0.6,2,1.7c0,1.7-1.2,5.7-3.5,12.1c-6.9,18.9-14.8,30.7-23.7,35.5
				c-1.8,1-2.7,1.7-2.7,2.3c0,0,5.1,7.5,15.3,22.5C875.16,631.64,880.26,640.64,880.26,643.44z"/>
		</g>
		<g>
			<g>
				<g>
					<path class="st1" d="M769.46,387.14v32.3h-32.3c-34.5,0-62.4-27.9-62.4-62.4v-32.3h32.3
						C741.46,324.74,769.46,352.64,769.46,387.14z"/>
				</g>
				<g>
					<path class="st1" d="M769.46,481.94v32.3h-158.7c-34.5,0-62.4-27.9-62.4-62.4v-32.3h158.7
						C741.46,419.54,769.46,447.44,769.46,481.94z"/>
				</g>
				<g>
					<path d="M779.96,430.04h-74.4c-40.2,0-73-32.7-73-73v-42.9h74.4c40.2,0,73,32.7,73,73V430.04z M653.66,335.24v21.8
						c0,28.6,23.3,51.9,51.9,51.9h53.4v-21.8c0-28.6-23.3-51.9-51.9-51.9H653.66z"/>
				</g>
				<g>
					<path d="M779.96,524.84h-200.1c-40.1,0-72.7-32.6-72.7-72.7v-42.7h200.2c40.1,0,72.7,32.6,72.7,72.7v42.7H779.96z
						 M528.06,430.34v21.7c0,28.5,23.2,51.7,51.7,51.7h179.2v-21.7c0-28.5-23.2-51.7-51.7-51.7H528.06z"/>
				</g>
			</g>
			<text transform="matrix(1 0 0 1 503.2356 365.5499)" class="st2 st3">TM</text>
			<g>
				<g>
					<g>
						<g>
							<path class="st4" d="M473.06,488.94c3.5,0,7.1,1.3,10.2,3.9c1.3,1.1,1.7,3.4,0.9,5.1c-0.8,1.7-2.6,2.2-3.9,1.2
								c-5.4-4.4-12.2-3.4-16.7,2.4c-5.4,7-14.2,7-19.6,0l-1-1.3c-1.6-2.1-3.7-3.2-6-3.1s-4.4,1.4-5.9,3.6c-2.5,3.6-5.9,5.8-9.6,6
								c-3.7,0.3-7.3-1.4-10-4.6c-1.2-1.4-1.3-3.7-0.2-5.2c1-1.5,2.8-1.6,4-0.3c1.6,1.9,3.7,2.9,5.9,2.7c2.2-0.2,4.2-1.4,5.7-3.6
								c2.6-3.8,6.1-5.9,9.9-6.1c3.8-0.1,7.5,1.7,10.2,5.3l1,1.3c3.2,4.2,8.4,4.2,11.6,0C463.26,491.44,468.16,488.94,473.06,488.94
								z"/>
						</g>
					</g>
					<g>
						<g>
							<path class="st4" d="M473.06,471.34c3.5,0,7.1,1.3,10.2,3.9c1.3,1.1,1.7,3.4,0.9,5.1c-0.8,1.7-2.6,2.2-3.9,1.2
								c-5.4-4.4-12.2-3.4-16.7,2.4c-5.4,7-14.2,7-19.6,0l-1-1.3c-1.6-2.1-3.7-3.2-6-3.1s-4.4,1.4-5.9,3.6c-2.5,3.6-5.9,5.8-9.6,6
								c-3.7,0.3-7.3-1.4-10-4.6c-1.2-1.4-1.3-3.7-0.2-5.2c1-1.5,2.8-1.6,4-0.3c1.6,1.9,3.7,2.9,5.9,2.7c2.2-0.2,4.2-1.4,5.7-3.6
								c2.6-3.8,6.1-5.9,9.9-6.1c3.8-0.1,7.5,1.7,10.2,5.3l1,1.3c3.2,4.2,8.4,4.2,11.6,0C463.26,473.84,468.16,471.34,473.06,471.34
								z"/>
						</g>
					</g>
				</g>
				<g>
					<g>
						<g>
							<path class="st4" d="M864.96,488.94c3.5,0,7.1,1.3,10.2,3.9c1.3,1.1,1.7,3.4,0.9,5.1s-2.6,2.2-3.9,1.2
								c-5.4-4.4-12.2-3.4-16.7,2.4c-5.4,7-14.2,7-19.6,0l-1-1.3c-1.6-2.1-3.7-3.2-6-3.1s-4.4,1.4-5.9,3.6c-2.5,3.6-5.9,5.8-9.6,6
								c-3.7,0.3-7.3-1.4-10-4.6c-1.2-1.4-1.3-3.7-0.2-5.2c1-1.5,2.8-1.6,4-0.3c1.6,1.9,3.7,2.9,5.9,2.7c2.2-0.2,4.2-1.4,5.7-3.6
								c2.6-3.8,6.1-5.9,9.9-6.1c3.8-0.1,7.5,1.7,10.2,5.3l1,1.3c3.2,4.2,8.4,4.2,11.6,0C855.16,491.44,860.06,488.94,864.96,488.94
								z"/>
						</g>
					</g>
					<g>
						<g>
							<path class="st4" d="M864.96,471.34c3.5,0,7.1,1.3,10.2,3.9c1.3,1.1,1.7,3.4,0.9,5.1s-2.6,2.2-3.9,1.2
								c-5.4-4.4-12.2-3.4-16.7,2.4c-5.4,7-14.2,7-19.6,0l-1-1.3c-1.6-2.1-3.7-3.2-6-3.1s-4.4,1.4-5.9,3.6c-2.5,3.6-5.9,5.8-9.6,6
								c-3.7,0.3-7.3-1.4-10-4.6c-1.2-1.4-1.3-3.7-0.2-5.2c1-1.5,2.8-1.6,4-0.3c1.6,1.9,3.7,2.9,5.9,2.7c2.2-0.2,4.2-1.4,5.7-3.6
								c2.6-3.8,6.1-5.9,9.9-6.1c3.8-0.1,7.5,1.7,10.2,5.3l1,1.3c3.2,4.2,8.4,4.2,11.6,0C855.16,473.84,860.06,471.34,864.96,471.34
								z"/>
						</g>
					</g>
				</g>
			</g>
		</g>
		<g>
			<g>
				<path class="st0" d="M394.36,709.84v-33.5h22.3v5.3h-15.2v8.3h14.5v5.2h-14.5v9.3h15.2v5.3h-22.3V709.84z"/>
				<path class="st0" d="M446.26,709.84v-17c0-2.9-1.2-4.3-3.5-4.3c-1.2,0-2.3,0.4-3.4,1.3c-1.1,0.9-2.2,2-3.4,3.5v16.5h-6.9v-26h6
					l0.2,3.8c0.6-0.7,1.2-1.3,1.8-1.8c0.6-0.5,1.3-1,2.1-1.4c0.7-0.4,1.5-0.7,2.4-0.9s1.8-0.3,2.9-0.3c1.5,0,2.8,0.2,3.9,0.7
					c1.1,0.4,2,1.1,2.8,1.8c0.7,0.8,1.3,1.8,1.7,2.9c0.4,1.1,0.6,2.4,0.6,3.8v17.4H446.26z"/>
				<path class="st0" d="M488.86,709.64c-1.2,0.3-2.5,0.5-3.8,0.6c-1.3,0.2-2.5,0.2-3.6,0.2c-1.9,0-3.5-0.2-4.9-0.5
					c-1.4-0.4-2.5-0.9-3.4-1.6c-0.9-0.7-1.6-1.7-2-2.8s-0.6-2.5-0.6-4.1v-12.7h-7.7v-4.9h7.7v-6.7l7.1-1.7v8.3h11.2v4.9h-11.2v12.3
					c0,1.5,0.4,2.6,1.1,3.4c0.8,0.8,2,1.1,3.8,1.1c1.1,0,2.2-0.1,3.3-0.3c1.1-0.2,2.1-0.4,2.9-0.6v5.1H488.86z"/>
				<path class="st0" d="M526.26,694.84c0,0.4,0,1,0,1.7s-0.1,1.3-0.1,1.9h-18.9c0,1.1,0.2,2.2,0.6,3c0.4,0.9,0.9,1.6,1.6,2.2
					c0.7,0.6,1.6,1,2.6,1.3c1,0.3,2.1,0.5,3.3,0.5c1.4,0,2.9-0.1,4.5-0.3s3.3-0.5,5-1v5c-0.7,0.2-1.5,0.4-2.4,0.5
					c-0.9,0.2-1.8,0.3-2.7,0.4c-0.9,0.1-1.8,0.2-2.8,0.3c-0.9,0.1-1.8,0.1-2.7,0.1c-2.2,0-4.2-0.3-5.9-0.8s-3.2-1.4-4.4-2.5
					c-1.2-1.1-2.1-2.5-2.8-4.1c-0.6-1.6-1-3.5-1-5.6s0.3-4.1,1-5.8c0.6-1.7,1.6-3.2,2.7-4.5c1.2-1.2,2.6-2.2,4.3-2.9
					c1.7-0.7,3.5-1,5.6-1c2,0,3.8,0.3,5.4,0.9c1.6,0.6,2.9,1.4,3.9,2.4c1.1,1,1.9,2.2,2.4,3.7
					C525.96,691.64,526.26,693.14,526.26,694.84z M519.16,693.94c0-1-0.1-1.9-0.4-2.7c-0.3-0.8-0.7-1.4-1.2-1.9s-1.1-0.9-1.8-1.1
					c-0.7-0.2-1.4-0.4-2.2-0.4c-1.7,0-3.2,0.5-4.3,1.6c-1.1,1.1-1.8,2.5-2,4.5L519.16,693.94L519.16,693.94z"/>
				<path class="st0" d="M555.66,693.94c0-1,0-1.8-0.2-2.5c-0.1-0.7-0.4-1.2-0.7-1.7c-0.3-0.4-0.7-0.8-1.1-1c-0.5-0.2-1-0.3-1.6-0.3
					c-1,0-2.1,0.4-3.2,1.1c-1.1,0.8-2.3,2-3.6,3.8v16.5h-7.1v-26h6.3l0.3,3.8c0.5-0.7,1-1.3,1.6-1.8s1.3-1,2-1.4s1.5-0.7,2.4-0.9
					s1.9-0.3,2.9-0.3c1.5,0,2.7,0.2,3.9,0.7c1.1,0.5,2.1,1.1,2.8,2c0.8,0.9,1.3,2,1.7,3.3s0.5,2.9,0.5,4.7H555.66z"/>
				<path class="st0" d="M596.86,709.64c-1.2,0.3-2.5,0.5-3.8,0.6c-1.3,0.2-2.5,0.2-3.6,0.2c-1.9,0-3.5-0.2-4.9-0.5
					c-1.4-0.4-2.5-0.9-3.4-1.6c-0.9-0.7-1.6-1.7-2-2.8s-0.6-2.5-0.6-4.1v-12.7h-7.7v-4.9h7.7v-6.7l7.1-1.7v8.3h11.2v4.9h-11.2v12.3
					c0,1.5,0.4,2.6,1.1,3.4c0.8,0.8,2,1.1,3.8,1.1c1.1,0,2.2-0.1,3.3-0.3s2.1-0.4,2.9-0.6v5.1H596.86z"/>
				<path class="st0" d="M627.16,709.84l-0.2-3.4c-0.6,0.6-1.2,1.1-1.9,1.6s-1.4,0.9-2.2,1.3s-1.7,0.6-2.6,0.8
					c-0.9,0.2-2,0.3-3.1,0.3c-1.5,0-2.8-0.2-3.9-0.6s-2.1-0.9-2.8-1.6c-0.8-0.7-1.3-1.5-1.7-2.5s-0.6-2.1-0.6-3.3s0.3-2.4,0.9-3.4
					c0.6-1,1.5-1.9,2.6-2.7c1.2-0.8,2.7-1.3,4.4-1.8c1.8-0.4,3.8-0.6,6.2-0.6h3.8v-1.6c0-0.7-0.1-1.3-0.3-1.8s-0.5-1-1-1.4
					s-1.1-0.7-1.8-0.9s-1.6-0.3-2.7-0.3c-1.7,0-3.4,0.2-5,0.5c-1.7,0.4-3.3,0.8-4.8,1.5v-5c1.4-0.5,3-0.9,4.8-1.2s3.7-0.5,5.6-0.5
					c2.1,0,4,0.2,5.5,0.6c1.5,0.4,2.8,0.9,3.8,1.7c1,0.7,1.7,1.7,2.2,2.8s0.7,2.4,0.7,3.9v17.6H627.16z M626.16,698.34h-4.2
					c-1.2,0-2.2,0.1-3,0.3s-1.5,0.5-2,0.8s-0.9,0.8-1.1,1.2c-0.2,0.5-0.4,1-0.4,1.5c0,1.1,0.4,1.9,1.1,2.4c0.8,0.6,1.8,0.8,3.1,0.8
					c1,0,2-0.3,3-1c1-0.6,2.2-1.5,3.4-2.7v-3.3H626.16z"/>
				<path class="st0" d="M662.36,709.84v-17c0-2.9-1.2-4.3-3.5-4.3c-1.2,0-2.3,0.4-3.4,1.3c-1.1,0.9-2.2,2-3.4,3.5v16.5h-6.9v-26h6
					l0.2,3.8c0.6-0.7,1.2-1.3,1.8-1.8s1.3-1,2.1-1.4c0.7-0.4,1.5-0.7,2.4-0.9c0.8-0.2,1.8-0.3,2.9-0.3c1.5,0,2.8,0.2,3.9,0.7
					c1.1,0.4,2,1.1,2.8,1.8c0.7,0.8,1.3,1.8,1.7,2.9c0.4,1.1,0.6,2.4,0.6,3.8v17.4H662.36z"/>
				<path class="st0" d="M690.46,688.64h-8.1v-4.8h15.2v21.2h8.3v4.9h-24.5v-4.9h9.1V688.64z M698.06,676.64c0,0.6-0.1,1.1-0.3,1.6
					s-0.5,0.9-0.9,1.3c-0.4,0.4-0.9,0.7-1.4,0.9s-1.1,0.3-1.8,0.3s-1.2-0.1-1.8-0.3s-1-0.5-1.4-0.9s-0.7-0.8-0.9-1.3s-0.3-1-0.3-1.6
					s0.1-1.1,0.3-1.6s0.5-0.9,0.9-1.3c0.4-0.4,0.9-0.7,1.4-0.9s1.2-0.3,1.8-0.3s1.2,0.1,1.8,0.3s1,0.5,1.4,0.9s0.7,0.8,0.9,1.3
					C697.96,675.54,698.06,676.14,698.06,676.64z"/>
				<path class="st0" d="M734.36,709.84v-17c0-2.9-1.2-4.3-3.5-4.3c-1.2,0-2.3,0.4-3.4,1.3c-1.1,0.9-2.2,2-3.4,3.5v16.5h-6.9v-26h6
					l0.2,3.8c0.6-0.7,1.2-1.3,1.8-1.8s1.3-1,2.1-1.4c0.7-0.4,1.5-0.7,2.4-0.9s1.8-0.3,2.9-0.3c1.5,0,2.8,0.2,3.9,0.7
					c1.1,0.4,2,1.1,2.8,1.8c0.7,0.8,1.3,1.8,1.7,2.9c0.4,1.1,0.6,2.4,0.6,3.8v17.4H734.36z"/>
				<path class="st0" d="M773.46,709.84v-17.8c0-0.7,0-1.2-0.1-1.7c0-0.5-0.1-0.9-0.2-1.2s-0.3-0.6-0.5-0.7
					c-0.2-0.2-0.5-0.2-0.9-0.2c-0.6,0-1.2,0.4-1.7,1.1c-0.6,0.7-1.2,1.9-1.9,3.7v16.8h-5.9v-17.8c0-0.7,0-1.2-0.1-1.7
					c0-0.5-0.1-0.9-0.2-1.2s-0.3-0.6-0.5-0.7c-0.2-0.2-0.5-0.2-0.9-0.2c-0.5,0-1,0.4-1.6,1.1s-1.3,1.9-2,3.7v16.8h-6v-26h5.1
					l0.1,3.8c0.4-0.8,0.8-1.4,1.2-2c0.4-0.5,0.9-1,1.3-1.3c0.5-0.3,1-0.6,1.5-0.8s1.1-0.2,1.8-0.2c1.6,0,2.8,0.4,3.7,1.1
					c0.8,0.8,1.3,1.8,1.4,3.2c0.5-0.8,0.9-1.4,1.3-2c0.4-0.5,0.9-1,1.4-1.3s1-0.6,1.6-0.8s1.2-0.2,1.9-0.2c2.1,0,3.7,0.7,4.7,2
					s1.5,3.3,1.5,5.9v18.6H773.46z"/>
				<path class="st0" d="M814.26,694.84c0,0.4,0,1,0,1.7s-0.1,1.3-0.1,1.9h-19c0,1.1,0.2,2.2,0.6,3c0.4,0.9,0.9,1.6,1.6,2.2
					c0.7,0.6,1.6,1,2.6,1.3s2.1,0.5,3.3,0.5c1.4,0,2.9-0.1,4.5-0.3s3.3-0.5,5-1v5c-0.7,0.2-1.5,0.4-2.4,0.5s-1.8,0.3-2.7,0.4
					c-0.9,0.1-1.8,0.2-2.8,0.3c-0.9,0.1-1.8,0.1-2.7,0.1c-2.2,0-4.2-0.3-5.9-0.8s-3.2-1.4-4.4-2.5s-2.1-2.5-2.8-4.1
					c-0.6-1.6-1-3.5-1-5.6s0.3-4.1,1-5.8s1.6-3.2,2.7-4.5c1.2-1.2,2.6-2.2,4.3-2.9s3.5-1,5.6-1c2,0,3.8,0.3,5.4,0.9s2.9,1.4,3.9,2.4
					c1.1,1,1.9,2.2,2.4,3.7S814.26,693.14,814.26,694.84z M807.26,693.94c0-1-0.1-1.9-0.4-2.7c-0.3-0.8-0.7-1.4-1.2-1.9
					s-1.1-0.9-1.8-1.1c-0.7-0.2-1.4-0.4-2.2-0.4c-1.7,0-3.2,0.5-4.3,1.6s-1.8,2.5-2,4.5L807.26,693.94L807.26,693.94z"/>
				<path class="st0" d="M842.36,709.84v-17c0-2.9-1.2-4.3-3.5-4.3c-1.2,0-2.3,0.4-3.4,1.3c-1.1,0.9-2.2,2-3.4,3.5v16.5h-6.9v-26h6
					l0.2,3.8c0.6-0.7,1.2-1.3,1.8-1.8s1.3-1,2.1-1.4c0.7-0.4,1.5-0.7,2.4-0.9s1.8-0.3,2.9-0.3c1.5,0,2.8,0.2,3.9,0.7
					c1.1,0.4,2,1.1,2.8,1.8c0.7,0.8,1.3,1.8,1.7,2.9c0.4,1.1,0.6,2.4,0.6,3.8v17.4H842.36z"/>
				<path class="st0" d="M884.96,709.64c-1.2,0.3-2.5,0.5-3.8,0.6c-1.3,0.2-2.5,0.2-3.6,0.2c-1.9,0-3.5-0.2-4.9-0.5
					c-1.4-0.4-2.5-0.9-3.4-1.6s-1.6-1.7-2-2.8s-0.6-2.5-0.6-4.1v-12.7h-7.7v-4.9h7.7v-6.7l7.1-1.7v8.3h11.2v4.9h-11.2v12.3
					c0,1.5,0.4,2.6,1.1,3.4c0.8,0.8,2,1.1,3.8,1.1c1.1,0,2.2-0.1,3.3-0.3s2.1-0.4,3-0.6L884.96,709.64L884.96,709.64z"/>
			</g>
		</g>
	</g>
</g>
</svg>
