<svg viewBox="0 0 296.85 86.24" xmlns="http://www.w3.org/2000/svg"><g fill="#fff"><path d="m4.78 82.95v-.53h6.7v-49.23h-6.7v-.53h36.27v13.03h-.53c0-6.86-3.58-12.5-12.5-12.5h-8.76v23.55h3.2c5.79 0 9.07-3.28 9.07-8.31h.53v17.15h-.53c0-4.95-3.28-8.31-9.07-8.31h-3.2v25.15h9.07c10.67 0 15.85-5.56 15.85-14.1h.61v14.63z"/><path d="m70.28 82.95h-22.56v-.53h6.71v-49.23h-6.71v-.53h22.56c12.95 0 22.94 10.74 22.94 25.15s-9.98 25.15-22.94 25.15zm8.92-47.02c-2.44-2.06-5.71-2.74-8.92-2.74h-8.08v49.23h8.08c3.2 0 6.48-.69 8.84-2.74 3.89-3.28 5.87-9.53 5.87-21.87 0-10.97-1.98-18.59-5.79-21.87z"/><path d="m94.74 82.95v-.53h6.63v-49.23h-6.63v-.53h21.11v.53h-6.63v49.23h6.63v.53z"/><path d="m159.69 48.2c0-8.31-3.81-15.01-14.1-15.01h-1.83v49.23h6.63v.53h-21.03v-.53h6.63v-49.23h-1.83c-10.36 0-14.1 6.71-14.1 15.01h-.61v-15.54h40.84v15.54h-.61z"/><path d="m163.89 82.95v-.53h6.63v-49.23h-6.63v-.53h21.11v.53h-6.63v49.23h6.63v.53z"/><path d="m237.55 57.78c0 14.57-11.81 25.17-26.29 25.17s-26.29-10.6-26.29-25.17 11.81-25.13 26.29-25.13 26.29 10.48 26.29 25.13zm-26.26-17.49c-12.27 0-19.62 3.36-22.9 7.47-2.21 2.74-2.9 6-2.9 10.03s.69 7.2 2.9 9.94c3.28 4.11 10.59 7.55 22.86 7.55s19.58-3.44 22.86-7.55c2.21-2.74 2.9-6 2.9-9.94s-.69-7.28-2.9-10.03c-3.28-4.11-10.59-7.47-22.86-7.47z"/><path d="m278.66 33.19v51.06h-.61l-33.15-50.98v49.15h6.86v.53h-13.95v-.53h6.55v-49.23h-6.55v-.53h15.77l24.54 37.26v-36.73h-6.71v-.53h13.72v.53h-6.48z"/><path d="m205.26 5.43c-.02-1.75-.75-3.17-2.87-3.17h-.22v9.93h1.37v.27h-4.41v-.27h1.37v-9.93h-.24c-2.13 0-2.84 1.43-2.86 3.17h-.29v-3.44h8.44v3.44z"/><path d="m212.14 12.46v-.27h1.17v-5.01h-4v5.01h1.17v.27h-4.22v-.27h1.37v-9.93h-1.37v-.27h4.22v.27h-1.17v4.65h4v-4.65h-1.17v-.27h4.22v.27h-1.36v9.93h1.36v.27z"/><path d="m217.31 12.46v-.27h1.37v-9.93h-1.37v-.27h7.44v2.81h-.29c-.02-1.51-.76-2.54-2.6-2.54h-1.51v4.65h.4c1.21 0 1.89-.68 1.89-1.75h.27v3.78h-.27c0-1.06-.68-1.76-1.89-1.76h-.4v5.01h1.59c1.84 0 3.24-.71 3.25-2.92h.29v3.19z"/><path d="m190.44 27.72c-1.62 0-2.16-1.51-2.16-2.48v-1.41c0-1.19-.94-1.63-2.14-1.63h-1.32v5.01h1.37v.27h-4.41v-.27h1.37v-9.93h-1.37v-.27h4.36c1.83 0 3.46.84 3.46 2.51 0 1.57-1.65 2.54-2.73 2.54 1.83 0 3.08 1.3 3.08 2.65v1.56c0 .76.37 1.13.86 1.13.37 0 .54-.14.7-.3l.17.22c-.11.14-.54.41-1.24.41zm-4.47-10.44h-1.14v4.65h1.4c1.13 0 1.7-.54 1.7-2.41 0-1.7-.73-2.24-1.95-2.24z"/><path d="m192.32 27.48v-.27h1.37v-9.93h-1.37v-.27h7.44v2.81h-.29c-.02-1.51-.76-2.54-2.6-2.54h-1.51v4.65h.4c1.21 0 1.89-.68 1.89-1.75h.27v3.78h-.27c0-1.06-.68-1.76-1.89-1.76h-.4v5.01h1.59c1.84 0 3.24-.71 3.25-2.92h.29v3.19z"/><path d="m205.68 27.48h-4.55v-.27h1.37v-9.93h-1.37v-.27h4.55c2.73 0 4.62 2.27 4.62 5.24s-1.89 5.24-4.62 5.24zm1.74-9.66c-.49-.44-1.09-.54-1.75-.54h-1.51v9.93h1.51c.65 0 1.25-.1 1.75-.54.73-.65 1.13-2.32 1.13-4.43s-.4-3.78-1.13-4.43z"/><path d="m218.31 27.72c-1.33 0-1.83-.63-2.38-.63-.48 0-.67.35-.68.6h-.27v-3.3h.27c.02 1.24 1.13 3.06 3.06 3.06 1.67 0 2.49-1.05 2.49-2.05 0-1.7-1.7-1.9-3.19-2.51-1.35-.54-2.38-1.3-2.38-3.03s1.17-3.09 2.71-3.09c.92 0 1.21.32 1.75.32.17 0 .46-.09.49-.29h.27v2.49h-.27c-.02-1.41-1.03-2.25-2.24-2.25s-2 .87-2 1.95.84 1.59 2.63 2.24c1.89.68 3.03 1.38 3.03 3.21 0 1.4-1.03 3.29-3.3 3.29z"/><path d="m221.93 27.48v-.27h1.37v-9.93h-1.37v-.27h7.44v2.81h-.29c-.02-1.51-.76-2.54-2.6-2.54h-1.51v4.65h.4c1.21 0 1.89-.68 1.89-1.75h.27v3.78h-.27c0-1.06-.68-1.76-1.89-1.76h-.4v5.01h1.59c1.84 0 3.24-.71 3.25-2.92h.29v3.19z"/><path d="m236.29 27.48v-.27h1.4l-1.09-3.08h-3.49l-1.09 3.08h1.41v.27h-3v-.27h1.27l3.78-10.47h.22l3.76 10.47h1.29v.27h-4.44zm-1.44-8.19-1.63 4.57h3.29l-1.65-4.57z"/><path d="m291.29 37.2c-.52.52-1.15.78-1.88.78s-1.36-.26-1.88-.78c-.51-.52-.77-1.15-.77-1.89s.26-1.36.78-1.87c.52-.52 1.14-.78 1.87-.78s1.37.26 1.88.78c.52.52.78 1.14.78 1.87s-.26 1.37-.78 1.89zm-3.5-3.5c-.44.45-.67.99-.67 1.62s.22 1.18.66 1.63.98.67 1.62.67 1.18-.22 1.62-.67.67-.99.67-1.63-.22-1.17-.67-1.62-.99-.67-1.62-.67-1.17.22-1.62.67zm1.57.14c.36 0 .63.03.8.11.3.13.45.37.45.74 0 .26-.09.45-.28.58-.1.06-.24.11-.42.14.23.04.4.13.5.29.11.15.16.3.16.45v.21.22c0 .08.01.13.02.15l.02.04h-.48s0-.02 0-.03c0 0 0-.02 0-.03v-.1s0-.23 0-.23c0-.34-.09-.56-.28-.67-.11-.06-.3-.09-.57-.09h-.41v1.15h-.51v-2.92h1.02zm.56.46c-.13-.07-.34-.11-.62-.11h-.44v1.06h.46c.22 0 .38-.02.49-.07.2-.08.3-.23.3-.45s-.07-.36-.2-.43z"/></g></svg>